<?xml version="1.0" encoding="UTF-8"?>
<svg id="Layer_1" data-name="Layer 1" xmlns="http://www.w3.org/2000/svg" viewBox="0 0 3873 3873">
  <defs>
    <style>
      .cls-1 {
        opacity: .25;
      }

      .cls-1, .cls-2, .cls-3 {
        fill-rule: evenodd;
      }

      .cls-1, .cls-3 {
        fill: #ffbc5e;
      }

      .cls-4, .cls-2 {
        fill: none;
      }

      .cls-2 {
        stroke: #ffbc5e;
        stroke-miterlimit: 10;
        stroke-width: 100px;
      }
    </style>
  </defs>
  <g id="_300253328" data-name=" 300253328">
    <path id="_300252872" data-name=" 300252872" class="cls-3" d="M3084.3,2789.14c-81.5,0-160.9-24-228.9-68.9-93.4-61.8-214-61.8-307.4,0-139,92-318.7,92-457.7,0-93.4-61.8-214-61.8-307.4,0-139,92-318.8,92-457.8,0-93.4-61.8-213.9-61.8-307.3,0-139.1,92-318.7,92-457.8,0l-23.2-15.3c-79.3-52.5-181.7-52.3-261.1,0-31.4,20.7-73.7,12.1-94.4-19.3-20.7-31.4-12.1-73.8,19.3-94.5,125-82.5,286.3-82.5,411.3,0l23.2,15.3c93.5,61.7,214,61.9,307.4.1,139-92,318.8-92,457.8,0,93.4,61.8,214,61.8,307.4,0,139-92,318.7-92,457.7,0,93.4,61.8,214,61.8,307.4,0,139-92,318.7-92,457.7,0,93.4,61.8,213.9,61.8,307.4,0l23.2-15.4c124.9-82.6,286.4-82.6,411.3,0,31.4,20.7,39.9,63.1,19.3,94.5-20.7,31.4-63.1,40-94.5,19.2-79.3-52.4-181.7-52.3-261.1,0l-23.2,15.4c-67.7,44.9-147.2,68.9-228.6,68.9h0ZM3084.2,3161.34c-81.5,0-160.9-24-228.8-68.9-93.4-61.8-214-61.8-307.4,0-139,92-318.7,92-457.7,0-93.4-61.8-214-61.8-307.4,0-139,92-318.8,92-457.8,0-93.4-61.8-213.9-61.8-307.3,0-139.1,92-318.7,92-457.8,0l-23.2-15.3c-79.3-52.4-181.7-52.5-261,0-31.4,20.7-73.8,12.1-94.5-19.3-20.7-31.4-12.1-73.8,19.3-94.5,125-82.5,286.4-82.6,411.3,0l23.2,15.3c93.4,61.8,213.9,61.8,307.4,0,139.1-92,318.7-92,457.8,0,93.4,61.8,214,61.8,307.4,0,139-92,318.7-92,457.7,0,93.4,61.8,214,61.8,307.4,0,139-92,318.7-92,457.7,0,93.4,61.8,213.9,61.8,307.4,0l23.2-15.4c124.9-82.6,286.4-82.6,411.3,0,31.4,20.7,40,63.1,19.3,94.5-20.7,31.4-63.1,40-94.5,19.2-79.3-52.4-181.7-52.3-261,0l-23.1,15.4c-68,44.9-147.4,69-228.9,69h0ZM3084.3,3533.44c-81.6,0-160.9-24-228.9-68.9-93.4-61.8-214-61.8-307.4,0-139,92-318.7,92-457.7,0-93.4-61.8-214-61.8-307.4,0-139,92-318.8,92-457.8,0-93.4-61.8-213.9-61.8-307.3,0-139.1,92-318.7,92-457.8,0l-23.2-15.3c-79.3-52.5-181.7-52.3-261.1,0-31.4,20.7-73.8,12.1-94.4-19.3-20.7-31.4-12.1-73.8,19.3-94.5,125-82.5,286.3-82.5,411.3,0l23.2,15.3c93.4,61.7,214,61.9,307.4.1,139.1-92,318.7-92,457.8,0,93.4,61.8,214,61.8,307.4,0,139-92,318.7-92,457.7,0,93.4,61.8,213.9,61.8,307.4,0,139-92,318.7-92,457.7,0,93.4,61.8,213.9,61.8,307.4,0l23.2-15.4c124.9-82.6,286.4-82.6,411.3,0,31.4,20.7,39.9,63.1,19.3,94.5-20.7,31.4-63.1,40-94.5,19.2-79.3-52.4-181.7-52.3-261.1,0l-23.2,15.4c-67.7,44.9-147.2,68.9-228.6,68.9h0Z"/>
    <path id="_300253376" data-name=" 300253376" class="cls-1" d="M1733.3,1713.88c-10.1,36.5-33.9,66.7-67,85.1l-1013.4,575.6c97.2,48.1,213.3,41.8,305.3-19.1,129.5-85.7,297-85.7,426.5,0,102.8,68,235.8,68,338.7,0,129.5-85.7,296.8-85.7,426.4,0,102.9,68,235.8,68,338.7,0,77.7-51.4,169-71.9,257.6-61.7l-151.6-228c-.9-1.3-1.8-2.6-2.6-3.9l-171.6-258.2c-.6-.9-1.3-1.8-1.8-2.8l-279.7-420.7c-31.9-48.1-41.6-107.6-26.5-163.3,15.1-55.7,53.6-102.2,105.4-127.6l739.7-361.6c64.2-36,104.1-104.2,104.1-178,0-54.1-21.3-105.2-59.8-143.7-64-64.1-164-78-243.2-34l-1067.3,592.9c-69,38.4-118.7,101.5-139.6,177.6-21,76.1-10.7,155.6,28.8,223.9l139.1,239.9c19,33,23.9,71.1,13.8,107.6h0Z"/>
    <path id="_300253376-2" data-name=" 300253376" class="cls-2" d="M1733.3,1706.88c-10.1,36.5-33.9,66.7-67,85.1l-1013.4,575.6c97.2,48.1,213.3,41.8,305.3-19.1,129.5-85.7,297-85.7,426.5,0,102.8,68,235.8,68,338.7,0,129.5-85.7,296.8-85.7,426.4,0,102.9,68,235.8,68,338.7,0,77.7-51.4,169-71.9,257.6-61.7l-151.6-228c-.9-1.3-1.8-2.6-2.6-3.9l-171.6-258.2c-.6-.9-1.3-1.8-1.8-2.8l-279.7-420.7c-31.9-48.1-41.6-107.6-26.5-163.3,15.1-55.7,53.6-102.2,105.4-127.6l739.7-361.6c64.2-36,104.1-104.2,104.1-178,0-54.1-21.3-105.2-59.8-143.7-64-64.1-164-78-243.2-34l-1067.3,592.9c-69,38.4-118.7,101.5-139.6,177.6-21,76.1-10.7,155.6,28.8,223.9l139.1,239.9c19,33,23.9,71.1,13.8,107.6h0Z"/>
    <path id="_300252632" data-name=" 300252632" class="cls-1" d="M3061.5,1132.44c-244,0-442.7,198.6-442.7,442.7,0,35.5,4.3,70.9,12.7,105.4l166.5,250.4c76.4,56.9,167.4,86.9,263.5,86.9,244.1,0,442.7-198.6,442.7-442.7s-198.6-442.7-442.7-442.7h0Z"/>
    <path id="_300252632-2" data-name=" 300252632" class="cls-2" d="M3061.5,1132.44c-244,0-442.7,198.6-442.7,442.7,0,35.5,4.3,70.9,12.7,105.4l166.5,250.4c76.4,56.9,167.4,86.9,263.5,86.9,244.1,0,442.7-198.6,442.7-442.7s-198.6-442.7-442.7-442.7h0Z"/>
  </g>
  <rect class="cls-4" width="3873" height="3873"/>
</svg>