<?xml version="1.0" encoding="UTF-8"?>
<svg id="Layer_1" data-name="Layer 1" xmlns="http://www.w3.org/2000/svg" viewBox="0 0 2660 2580">
  <defs>
    <style>
      .cls-1 {
        fill: #ffbc5e;
        opacity: .25;
      }

      .cls-2 {
        stroke: #ffbc5e;
        stroke-width: 18px;
      }

      .cls-2, .cls-3 {
        fill: none;
        stroke-miterlimit: 10;
      }

      .cls-3 {
        stroke: #fc6;
        stroke-width: 100px;
      }
    </style>
  </defs>
  <g>
    <path class="cls-1" d="M824.91,51.85c-67.22,17-207.27,139.22-274.89,239.83l-12.2,18.2-9.6-5.8c-5.2-3.2-16.61-8.4-25.41-11.4-14.2-5-18.81-5.6-42.01-5.6-29.61,0-43.41,2.8-65.82,14.2-29.41,14.6-50.62,36.6-65.42,67.61-15.81,33-17.81,69.61-6,104.81,3.4,10.2,6.2,18.8,6.2,19,0,.4-6,4.4-13.6,8.8-43.41,25.8-119.24,91.01-164.25,141.42-90.83,101.41-118.64,179.02-57.82,162.22,22.81-6.4,59.02-27,94.63-53.81,64.22-48.61,139.25-126.22,178.86-185.02l12-18,17.61,8.8c34.01,16.6,60.82,18.6,107.63,7.4,3.2-.6,10.4,4.8,29.01,21.8,144.45,130.82,279.89,297.64,374.72,461.46l13,22.6-12.6,25.8c-39.41,81.21-53.82,177.22-39.01,262.83,6.4,38,14.6,66.81,29.61,104.21l4,10.2-13.4,27.8c-39.01,80.41-102.63,175.42-188.26,281.83-55.22,68.41-123.64,145.82-181.66,205.62l-19.01,19.4-17.21-3.2c-32.01-6-69.22-.2-94.23,14.6-.6.4-4-4.4-7.6-10.4-28.01-46.61-119.84-136.62-192.46-188.42-51.82-36.8-105.03-61.21-125.44-57.41-32.01,6-9,58.61,57.42,132.22,53.22,58.81,139.65,128.82,198.46,160.42l19.21,10.2-6.8,15.6c-10.4,23.8-13.4,40.8-12.4,68.01.8,18.4,2,26.4,6.2,38,13.8,38.6,39.41,67.21,74.82,83.61,19.61,9.2,38.01,13.2,60.62,13.2,25.01,0,41.01-3.4,59.02-12.4l14.6-7.4,9.8,13.2c27.81,38.2,95.23,106.61,140.65,143.02,65.02,52.01,126.44,85.21,157.85,85.21,6.4,0,9.6-1.2,13.6-5.2,4.6-4.6,5-6.2,4-16-5.8-56.41-136.44-190.82-257.88-265.63-8.6-5.4-15.61-10.4-15.61-11.2,0-1,1.8-5.8,4-10.8,9.6-22.4,12.2-53.01,7-82.01l-2.8-16,17.41-19c28.21-31.4,111.04-113.41,144.85-143.82,106.83-95.61,227.27-183.82,329.11-241.23l16.61-9.2,20.81,9.8c38.21,18.4,78.83,30.4,125.24,37.4,27.81,4.2,88.23,4.8,116.04,1.2,45.21-6,91.03-19.2,130.24-37.8l23.01-10.8,26.01,14.4c92.63,51.81,209.67,140.02,330.91,249.83,37.81,34.2,110.04,102.61,137.84,130.62l24.81,25-2.2,11.6c-3,14.4-3,43.41-.2,57.21,1.2,5.8,5,16.6,8.2,24.2,3.4,7.4,5.8,13.8,5.4,14.2-.4.2-10.2,7-21.81,14.8-28.61,19.6-57.82,44.21-90.03,76.41-68.42,68.41-119.64,136.42-138.24,183.02-6.6,16.6-6.6,33.8,0,39.2,30.41,24.8,168.45-80.61,260.88-199.22,13-16.6,40.41-56.81,42.01-61.61.4-1.2,2.8-.6,5.6,1.4,9.2,6,36.81,14.8,53.02,17,56.02,7.8,114.44-23.6,141.65-75.81,18.81-35.8,21.21-74.41,7.2-116.01-3-9.4-4.8-17.2-4-17.6,1-.4,11-6.8,22.41-14.4,110.64-73.41,243.08-230.43,244.48-289.63.2-9-.6-11.4-4.6-14.6-34.21-27.8-189.46,96.61-282.09,226.03-9,12.6-18.61,26.8-21.41,31.6-2.8,4.6-5.8,8.6-6.6,8.6s-7.2-3.2-14.6-7c-27.81-14.8-67.22-19.4-96.63-11.2l-13.8,3.8-19.41-17.8c-25.41-23.4-82.83-82.41-112.04-115.01-106.83-119.21-195.46-243.83-261.48-367.64l-18.21-33.8,4.2-10.2c9-22,22.01-65.21,26.61-88.01,17.41-86.41,9.2-175.22-24.01-258.03l-9.2-23,7.4-13.6c41.41-75.21,91.63-146.82,163.85-233.63,61.02-73.41,144.65-163.22,218.47-234.83l46.01-44.61,32.81-.4c37.21-.4,49.62-3.4,72.62-17.4,11.6-7.2,12.4-7.4,15.2-4,1.6,2,8.8,11.2,16.01,20.4,28.01,36.2,90.63,95.01,145.65,136.62,61.62,46.61,124.64,79.21,153.05,79.21,9.8,0,17.21-3.8,18.61-9.4,2.8-10.4-13.8-39.8-42.41-75.61-21.01-26-84.23-90.21-110.44-111.61-44.81-37-96.83-73.41-125.64-88.21l-14.2-7.2,5.2-14.4c4.6-13.2,5-17.6,5-44.61s-.6-31.6-5.4-46.01c-14.6-43.81-47.82-77.01-92.43-92.21-14.4-5-18.81-5.6-43.01-5.6s-29.01.6-44.01,5.6c-25.81,8.2-24.41,8.2-29.41.6-10.4-16.4-39.61-50.61-65.62-76.61-69.42-69.41-165.25-136.82-219.67-153.82-93.63-29.6-41.61,76.01,93.63,190.02,43.21,36.4,111.04,84.41,135.64,96.21l7.2,3.4-6,11.6c-14.8,29.4-19.01,69.41-11,102.61l4,15.8-52.02,51.21c-28.41,28.2-64.82,62.81-80.83,77.01-115.04,102.21-241.28,192.22-369.92,264.03l-34.81,19.4-23.21-9.8c-57.82-24.6-105.63-35.6-164.25-37.6-55.42-2-102.43,4.8-157.25,22.8l-29.01,9.6-37.41-19.2c-134.84-69.01-298.9-194.62-484.16-370.24l-22.41-21.4,3.2-13.6c4.6-19.6,2.8-48.81-4.2-68.81-2.8-8.2-5.6-16.4-6.2-18.2-.8-2.2,2.6-5.4,12.6-11.2,34.61-20.6,94.43-70.01,139.05-115.01,105.63-106.21,150.45-206.42,84.63-189.62Z"/>
    <path class="cls-3" d="M824.91,51.85c-67.22,17-207.27,139.22-274.89,239.83l-12.2,18.2-9.6-5.8c-5.2-3.2-16.61-8.4-25.41-11.4-14.2-5-18.81-5.6-42.01-5.6-29.61,0-43.41,2.8-65.82,14.2-29.41,14.6-50.62,36.6-65.42,67.61-15.81,33-17.81,69.61-6,104.81,3.4,10.2,6.2,18.8,6.2,19,0,.4-6,4.4-13.6,8.8-43.41,25.8-119.24,91.01-164.25,141.42-90.83,101.41-118.64,179.02-57.82,162.22,22.81-6.4,59.02-27,94.63-53.81,64.22-48.61,139.25-126.22,178.86-185.02l12-18,17.61,8.8c34.01,16.6,60.82,18.6,107.63,7.4,3.2-.6,10.4,4.8,29.01,21.8,144.45,130.82,279.89,297.64,374.72,461.46l13,22.6-12.6,25.8c-39.41,81.21-53.82,177.22-39.01,262.83,6.4,38,14.6,66.81,29.61,104.21l4,10.2-13.4,27.8c-39.01,80.41-102.63,175.42-188.26,281.83-55.22,68.41-123.64,145.82-181.66,205.62l-19.01,19.4-17.21-3.2c-32.01-6-69.22-.2-94.23,14.6-.6.4-4-4.4-7.6-10.4-28.01-46.61-119.84-136.62-192.46-188.42-51.82-36.8-105.03-61.21-125.44-57.41-32.01,6-9,58.61,57.42,132.22,53.22,58.81,139.65,128.82,198.46,160.42l19.21,10.2-6.8,15.6c-10.4,23.8-13.4,40.8-12.4,68.01.8,18.4,2,26.4,6.2,38,13.8,38.6,39.41,67.21,74.82,83.61,19.61,9.2,38.01,13.2,60.62,13.2,25.01,0,41.01-3.4,59.02-12.4l14.6-7.4,9.8,13.2c27.81,38.2,95.23,106.61,140.65,143.02,65.02,52.01,126.44,85.21,157.85,85.21,6.4,0,9.6-1.2,13.6-5.2,4.6-4.6,5-6.2,4-16-5.8-56.41-136.44-190.82-257.88-265.63-8.6-5.4-15.61-10.4-15.61-11.2,0-1,1.8-5.8,4-10.8,9.6-22.4,12.2-53.01,7-82.01l-2.8-16,17.41-19c28.21-31.4,111.04-113.41,144.85-143.82,106.83-95.61,227.27-183.82,329.11-241.23l16.61-9.2,20.81,9.8c38.21,18.4,78.83,30.4,125.24,37.4,27.81,4.2,88.23,4.8,116.04,1.2,45.21-6,91.03-19.2,130.24-37.8l23.01-10.8,26.01,14.4c92.63,51.81,209.67,140.02,330.91,249.83,37.81,34.2,110.04,102.61,137.84,130.62l24.81,25-2.2,11.6c-3,14.4-3,43.41-.2,57.21,1.2,5.8,5,16.6,8.2,24.2,3.4,7.4,5.8,13.8,5.4,14.2-.4.2-10.2,7-21.81,14.8-28.61,19.6-57.82,44.21-90.03,76.41-68.42,68.41-119.64,136.42-138.24,183.02-6.6,16.6-6.6,33.8,0,39.2,30.41,24.8,168.45-80.61,260.88-199.22,13-16.6,40.41-56.81,42.01-61.61.4-1.2,2.8-.6,5.6,1.4,9.2,6,36.81,14.8,53.02,17,56.02,7.8,114.44-23.6,141.65-75.81,18.81-35.8,21.21-74.41,7.2-116.01-3-9.4-4.8-17.2-4-17.6,1-.4,11-6.8,22.41-14.4,110.64-73.41,243.08-230.43,244.48-289.63.2-9-.6-11.4-4.6-14.6-34.21-27.8-189.46,96.61-282.09,226.03-9,12.6-18.61,26.8-21.41,31.6-2.8,4.6-5.8,8.6-6.6,8.6s-7.2-3.2-14.6-7c-27.81-14.8-67.22-19.4-96.63-11.2l-13.8,3.8-19.41-17.8c-25.41-23.4-82.83-82.41-112.04-115.01-106.83-119.21-195.46-243.83-261.48-367.64l-18.21-33.8,4.2-10.2c9-22,22.01-65.21,26.61-88.01,17.41-86.41,9.2-175.22-24.01-258.03l-9.2-23,7.4-13.6c41.41-75.21,91.63-146.82,163.85-233.63,61.02-73.41,144.65-163.22,218.47-234.83l46.01-44.61,32.81-.4c37.21-.4,49.62-3.4,72.62-17.4,11.6-7.2,12.4-7.4,15.2-4,1.6,2,8.8,11.2,16.01,20.4,28.01,36.2,90.63,95.01,145.65,136.62,61.62,46.61,124.64,79.21,153.05,79.21,9.8,0,17.21-3.8,18.61-9.4,2.8-10.4-13.8-39.8-42.41-75.61-21.01-26-84.23-90.21-110.44-111.61-44.81-37-96.83-73.41-125.64-88.21l-14.2-7.2,5.2-14.4c4.6-13.2,5-17.6,5-44.61s-.6-31.6-5.4-46.01c-14.6-43.81-47.82-77.01-92.43-92.21-14.4-5-18.81-5.6-43.01-5.6s-29.01.6-44.01,5.6c-25.81,8.2-24.41,8.2-29.41.6-10.4-16.4-39.61-50.61-65.62-76.61-69.42-69.41-165.25-136.82-219.67-153.82-93.63-29.6-41.61,76.01,93.63,190.02,43.21,36.4,111.04,84.41,135.64,96.21l7.2,3.4-6,11.6c-14.8,29.4-19.01,69.41-11,102.61l4,15.8-52.02,51.21c-28.41,28.2-64.82,62.81-80.83,77.01-115.04,102.21-241.28,192.22-369.92,264.03l-34.81,19.4-23.21-9.8c-57.82-24.6-105.63-35.6-164.25-37.6-55.42-2-102.43,4.8-157.25,22.8l-29.01,9.6-37.41-19.2c-134.84-69.01-298.9-194.62-484.16-370.24l-22.41-21.4,3.2-13.6c4.6-19.6,2.8-48.81-4.2-68.81-2.8-8.2-5.6-16.4-6.2-18.2-.8-2.2,2.6-5.4,12.6-11.2,34.61-20.6,94.43-70.01,139.05-115.01,105.63-106.21,150.45-206.42,84.63-189.62Z"/>
  </g>
  <path class="cls-2" d="M2201.36,401.89c11.6,5.6,17.81,17,16.61,30.8-1,12.2-5.4,19.2-15.81,25-20.01,11.4-46.62-4.2-46.21-26.8.2-14.6,7.8-25.2,21.81-30.2,10.4-3.6,14-3.4,23.61,1.2Z"/>
  <path class="cls-2" d="M478.4,404.69c3.6,1.4,9,5.4,12.2,8.8,16.61,17.8,0,48.41-26.41,48.41-15.61,0-28.81-13.6-29.01-29.8-.4-22,22.21-36.4,43.21-27.4Z"/>
  <path class="cls-2" d="M482.8,2120.3c8.6,5,15,17.4,15,28.6,0,7.8-1.2,10.4-7,17-9,10-16.41,13-29.21,11.8-22.21-2.2-33.41-26-22.01-47.01,2.8-5.2,13.6-13.8,19.21-15.2,6.2-1.4,17.41.8,24.01,4.8Z"/>
  <path class="cls-2" d="M2195.36,2124.1c10,6.2,15.81,19,14,30.4-2,11.4-15.4,24.6-26.61,26.6-14.8,2.4-29.01-5.8-34.21-19.6-3.6-9.6-2.8-26.2,1.8-31.8,9.6-12.4,30.01-14.8,45.01-5.6Z"/>
</svg>